<mxfile modified="2021-06-24T09:43:52.306Z" host="app.diagrams.net" agent="5.0 (Windows NT 10.0; Win64; x64) AppleWebKit/537.36 (KHTML, like Gecko) Chrome/91.0.4472.114 Safari/537.36" etag="jQ5-FhqNcpS3jyK7Ba1O" version="13.6.0" type="github">
  <diagram id="Ht1M8jgEwFfnCIfOTk4-" name="Page-1">
    <mxGraphModel dx="1422" dy="762" grid="1" gridSize="10" guides="1" tooltips="1" connect="1" arrows="1" fold="1" page="1" pageScale="1" pageWidth="1169" pageHeight="827" math="0" shadow="0">
      <root>
        <mxCell id="0" />
        <mxCell id="1" parent="0" />
        <mxCell id="umeH0HnyxNXrOA5HGb2K-22" value="" style="rounded=0;whiteSpace=wrap;html=1;strokeColor=#d6b656;fillColor=#FFF9EB;" parent="1" vertex="1">
          <mxGeometry x="270" y="220" width="870" height="710" as="geometry" />
        </mxCell>
        <mxCell id="5tZSmuqax2kPrNc6n6yo-6" value="" style="rounded=0;whiteSpace=wrap;html=1;fontSize=14;fillColor=#f8cecc;strokeColor=#b85450;" vertex="1" parent="1">
          <mxGeometry x="772" y="471" width="190" height="315" as="geometry" />
        </mxCell>
        <mxCell id="-QjtrjUzRDEMRZ5MF8oH-47" value="Caddy SSL Multisite&amp;nbsp;" style="text;html=1;resizable=0;points=[];autosize=1;align=left;verticalAlign=top;spacingTop=-4;fontSize=30;fontStyle=1" parent="1" vertex="1">
          <mxGeometry x="56.5" y="64.5" width="310" height="40" as="geometry" />
        </mxCell>
        <mxCell id="-QjtrjUzRDEMRZ5MF8oH-48" value="Network Diagram" style="text;html=1;resizable=0;points=[];autosize=1;align=left;verticalAlign=top;spacingTop=-4;fontSize=16;" parent="1" vertex="1">
          <mxGeometry x="56.5" y="114.5" width="140" height="20" as="geometry" />
        </mxCell>
        <mxCell id="SCVMTBWpLvtzJIhz15lM-1" value="" style="line;strokeWidth=2;html=1;fontSize=14;" parent="1" vertex="1">
          <mxGeometry x="52.5" y="139.5" width="1117.5" height="10" as="geometry" />
        </mxCell>
        <mxCell id="umeH0HnyxNXrOA5HGb2K-1" value="&lt;font style=&quot;font-size: 15px&quot;&gt;&lt;b&gt;&lt;br&gt;OPEN PORTS&lt;br&gt;&amp;nbsp;80 and 443&lt;br&gt;forward to Caddy&lt;br&gt;Container&lt;/b&gt;&lt;/font&gt;" style="outlineConnect=0;fontColor=#232F3E;gradientColor=none;fillColor=#5A30B5;strokeColor=none;dashed=0;verticalLabelPosition=bottom;verticalAlign=top;align=center;html=1;fontSize=12;fontStyle=0;aspect=fixed;pointerEvents=1;shape=mxgraph.aws4.endpoint;" parent="1" vertex="1">
          <mxGeometry x="205.5" y="443.5" width="78" height="78" as="geometry" />
        </mxCell>
        <mxCell id="umeH0HnyxNXrOA5HGb2K-2" value="DNS Record&lt;br&gt;points Domain&amp;nbsp;&lt;br&gt;To your server" style="outlineConnect=0;fontColor=#232F3E;gradientColor=none;fillColor=#5A30B5;strokeColor=none;dashed=0;verticalLabelPosition=bottom;verticalAlign=top;align=center;html=1;fontSize=12;fontStyle=0;aspect=fixed;pointerEvents=1;shape=mxgraph.aws4.hosted_zone;" parent="1" vertex="1">
          <mxGeometry x="30" y="443.5" width="78" height="77" as="geometry" />
        </mxCell>
        <mxCell id="umeH0HnyxNXrOA5HGb2K-7" value="" style="outlineConnect=0;fontColor=#232F3E;gradientColor=none;fillColor=#D05C17;strokeColor=none;dashed=0;verticalLabelPosition=bottom;verticalAlign=top;align=center;html=1;fontSize=12;fontStyle=0;aspect=fixed;pointerEvents=1;shape=mxgraph.aws4.container_3;" parent="1" vertex="1">
          <mxGeometry x="323.64" y="240" width="249.61" height="160" as="geometry" />
        </mxCell>
        <mxCell id="umeH0HnyxNXrOA5HGb2K-9" value="PHP" style="outlineConnect=0;fontColor=#232F3E;gradientColor=none;fillColor=#D05C17;strokeColor=none;dashed=0;verticalLabelPosition=bottom;verticalAlign=top;align=center;html=1;fontSize=12;fontStyle=0;aspect=fixed;pointerEvents=1;shape=mxgraph.aws4.container_3;" parent="1" vertex="1">
          <mxGeometry x="820.2" y="501" width="78" height="50" as="geometry" />
        </mxCell>
        <mxCell id="umeH0HnyxNXrOA5HGb2K-10" value="Node JS" style="outlineConnect=0;fontColor=#232F3E;gradientColor=none;fillColor=#D05C17;strokeColor=none;dashed=0;verticalLabelPosition=bottom;verticalAlign=top;align=center;html=1;fontSize=12;fontStyle=0;aspect=fixed;pointerEvents=1;shape=mxgraph.aws4.container_3;" parent="1" vertex="1">
          <mxGeometry x="820.2" y="600" width="78" height="50" as="geometry" />
        </mxCell>
        <mxCell id="umeH0HnyxNXrOA5HGb2K-13" value="&lt;h1&gt;Caddy SSL Multi-Site&lt;/h1&gt;&lt;p&gt;&lt;ol&gt;&lt;li&gt;Manages and updates free SSL certificates for all domains in it&#39;s config file&lt;/li&gt;&lt;li&gt;Re-Routes all HTTP requests to HTTPS&lt;/li&gt;&lt;li&gt;Connects the domains setup as file servers to the correct folder&lt;/li&gt;&lt;li&gt;Connects the domains setup as reverse proxy to the correct container&lt;/li&gt;&lt;/ol&gt;&lt;/p&gt;" style="text;html=1;strokeColor=#82b366;fillColor=#d5e8d4;spacing=5;spacingTop=-20;whiteSpace=wrap;overflow=hidden;rounded=0;" parent="1" vertex="1">
          <mxGeometry x="313.45" y="400" width="270" height="410" as="geometry" />
        </mxCell>
        <mxCell id="umeH0HnyxNXrOA5HGb2K-17" value="" style="endArrow=classic;startArrow=classic;html=1;exitX=1.026;exitY=0.65;exitDx=0;exitDy=0;exitPerimeter=0;" parent="1" source="umeH0HnyxNXrOA5HGb2K-9" target="umeH0HnyxNXrOA5HGb2K-4" edge="1">
          <mxGeometry width="50" height="50" relative="1" as="geometry">
            <mxPoint x="901" y="510" as="sourcePoint" />
            <mxPoint x="1001" y="510" as="targetPoint" />
          </mxGeometry>
        </mxCell>
        <mxCell id="umeH0HnyxNXrOA5HGb2K-18" value="" style="endArrow=classic;startArrow=classic;html=1;" parent="1" source="umeH0HnyxNXrOA5HGb2K-10" target="umeH0HnyxNXrOA5HGb2K-5" edge="1">
          <mxGeometry width="50" height="50" relative="1" as="geometry">
            <mxPoint x="901" y="691" as="sourcePoint" />
            <mxPoint x="1001" y="691" as="targetPoint" />
          </mxGeometry>
        </mxCell>
        <mxCell id="umeH0HnyxNXrOA5HGb2K-4" value="" style="outlineConnect=0;fontColor=#232F3E;gradientColor=none;fillColor=#277116;strokeColor=none;dashed=0;verticalLabelPosition=bottom;verticalAlign=top;align=center;html=1;fontSize=12;fontStyle=0;aspect=fixed;pointerEvents=1;shape=mxgraph.aws4.file_system;" parent="1" vertex="1">
          <mxGeometry x="1002" y="495.5" width="78" height="73" as="geometry" />
        </mxCell>
        <mxCell id="umeH0HnyxNXrOA5HGb2K-5" value="" style="outlineConnect=0;fontColor=#232F3E;gradientColor=none;fillColor=#277116;strokeColor=none;dashed=0;verticalLabelPosition=bottom;verticalAlign=top;align=center;html=1;fontSize=12;fontStyle=0;aspect=fixed;pointerEvents=1;shape=mxgraph.aws4.file_system;" parent="1" vertex="1">
          <mxGeometry x="1002" y="588.5" width="78" height="73" as="geometry" />
        </mxCell>
        <mxCell id="umeH0HnyxNXrOA5HGb2K-6" value="" style="outlineConnect=0;fontColor=#232F3E;gradientColor=none;fillColor=#277116;strokeColor=none;dashed=0;verticalLabelPosition=bottom;verticalAlign=top;align=center;html=1;fontSize=12;fontStyle=0;aspect=fixed;pointerEvents=1;shape=mxgraph.aws4.file_system;" parent="1" vertex="1">
          <mxGeometry x="828" y="260" width="78" height="73" as="geometry" />
        </mxCell>
        <mxCell id="umeH0HnyxNXrOA5HGb2K-8" value="Web Server" style="text;html=1;align=center;verticalAlign=middle;resizable=0;points=[];autosize=1;fontSize=18;" parent="1" vertex="1">
          <mxGeometry x="1219" y="588.5" width="110" height="30" as="geometry" />
        </mxCell>
        <mxCell id="umeH0HnyxNXrOA5HGb2K-44" value="Port 22&lt;br&gt;Behind Firewall" style="text;html=1;strokeColor=none;fillColor=none;align=center;verticalAlign=middle;whiteSpace=wrap;rounded=0;" parent="1" vertex="1">
          <mxGeometry x="1060" y="850" width="131" height="50" as="geometry" />
        </mxCell>
        <mxCell id="umeH0HnyxNXrOA5HGb2K-48" value="" style="outlineConnect=0;fontColor=#232F3E;gradientColor=none;fillColor=#5A30B5;strokeColor=none;dashed=0;verticalLabelPosition=bottom;verticalAlign=top;align=center;html=1;fontSize=12;fontStyle=0;aspect=fixed;pointerEvents=1;shape=mxgraph.aws4.endpoint;" parent="1" vertex="1">
          <mxGeometry x="1001" y="890" width="78" height="78" as="geometry" />
        </mxCell>
        <mxCell id="umeH0HnyxNXrOA5HGb2K-54" value="" style="endArrow=none;dashed=1;html=1;dashPattern=1 3;strokeWidth=2;exitX=1;exitY=0.25;exitDx=0;exitDy=0;" parent="1" source="5tZSmuqax2kPrNc6n6yo-12" target="umeH0HnyxNXrOA5HGb2K-9" edge="1">
          <mxGeometry width="50" height="50" relative="1" as="geometry">
            <mxPoint x="580" y="580" as="sourcePoint" />
            <mxPoint x="630" y="530" as="targetPoint" />
          </mxGeometry>
        </mxCell>
        <mxCell id="umeH0HnyxNXrOA5HGb2K-55" value="" style="endArrow=none;dashed=1;html=1;dashPattern=1 3;strokeWidth=2;exitX=1;exitY=0.5;exitDx=0;exitDy=0;" parent="1" source="5tZSmuqax2kPrNc6n6yo-13" target="umeH0HnyxNXrOA5HGb2K-10" edge="1">
          <mxGeometry width="50" height="50" relative="1" as="geometry">
            <mxPoint x="580" y="600" as="sourcePoint" />
            <mxPoint x="630" y="550" as="targetPoint" />
          </mxGeometry>
        </mxCell>
        <mxCell id="umeH0HnyxNXrOA5HGb2K-56" value="" style="image;html=1;image=img/lib/clip_art/networking/Firewall_128x128.png;dashed=1;dashPattern=1 1;fillColor=#FFF9EB;" parent="1" vertex="1">
          <mxGeometry x="1009" y="968" width="80" height="80" as="geometry" />
        </mxCell>
        <mxCell id="J3lZyu1eDa4s-xxv6yae-1" value="" style="outlineConnect=0;fontColor=#232F3E;gradientColor=none;fillColor=#277116;strokeColor=none;dashed=0;verticalLabelPosition=bottom;verticalAlign=top;align=center;html=1;fontSize=12;fontStyle=0;aspect=fixed;pointerEvents=1;shape=mxgraph.aws4.file_system;" parent="1" vertex="1">
          <mxGeometry x="1001" y="685.7" width="78" height="73" as="geometry" />
        </mxCell>
        <mxCell id="J3lZyu1eDa4s-xxv6yae-3" value="" style="endArrow=none;dashed=1;html=1;dashPattern=1 3;strokeWidth=2;exitX=1;exitY=0.5;exitDx=0;exitDy=0;" parent="1" source="5tZSmuqax2kPrNc6n6yo-14" target="J3lZyu1eDa4s-xxv6yae-6" edge="1">
          <mxGeometry width="50" height="50" relative="1" as="geometry">
            <mxPoint x="578.9999999999999" y="585.04" as="sourcePoint" />
            <mxPoint x="680" y="810" as="targetPoint" />
          </mxGeometry>
        </mxCell>
        <mxCell id="J3lZyu1eDa4s-xxv6yae-6" value="" style="dashed=0;outlineConnect=0;html=1;align=center;labelPosition=center;verticalLabelPosition=bottom;verticalAlign=top;shape=mxgraph.webicons.wordpress;fillColor=#35E2EE;gradientColor=#0E4D99" parent="1" vertex="1">
          <mxGeometry x="808" y="679.9999999999998" width="102.4" height="102.4" as="geometry" />
        </mxCell>
        <mxCell id="J3lZyu1eDa4s-xxv6yae-7" value="" style="outlineConnect=0;fontColor=#232F3E;gradientColor=none;fillColor=#3334B9;strokeColor=none;dashed=0;verticalLabelPosition=bottom;verticalAlign=top;align=center;html=1;fontSize=12;fontStyle=0;aspect=fixed;pointerEvents=1;shape=mxgraph.aws4.rds_mysql_instance;" parent="1" vertex="1">
          <mxGeometry x="817.9" y="827" width="78" height="78" as="geometry" />
        </mxCell>
        <mxCell id="J3lZyu1eDa4s-xxv6yae-11" value="" style="endArrow=classic;startArrow=classic;html=1;" parent="1" source="J3lZyu1eDa4s-xxv6yae-6" target="J3lZyu1eDa4s-xxv6yae-7" edge="1">
          <mxGeometry width="50" height="50" relative="1" as="geometry">
            <mxPoint x="912" y="791" as="sourcePoint" />
            <mxPoint x="1023.4" y="791" as="targetPoint" />
          </mxGeometry>
        </mxCell>
        <mxCell id="J3lZyu1eDa4s-xxv6yae-12" value="" style="endArrow=classic;startArrow=classic;html=1;" parent="1" source="J3lZyu1eDa4s-xxv6yae-6" target="J3lZyu1eDa4s-xxv6yae-1" edge="1">
          <mxGeometry width="50" height="50" relative="1" as="geometry">
            <mxPoint x="923.4000000000001" y="832.53" as="sourcePoint" />
            <mxPoint x="1012" y="811.004921630094" as="targetPoint" />
          </mxGeometry>
        </mxCell>
        <mxCell id="J3lZyu1eDa4s-xxv6yae-14" value="" style="image;html=1;image=img/lib/clip_art/computers/Server_128x128.png" parent="1" vertex="1">
          <mxGeometry x="1110" y="490" width="150" height="128.5" as="geometry" />
        </mxCell>
        <mxCell id="J3lZyu1eDa4s-xxv6yae-17" value="" style="shape=image;html=1;verticalAlign=top;verticalLabelPosition=bottom;labelBackgroundColor=#ffffff;imageAspect=0;aspect=fixed;image=https://cdn2.iconfinder.com/data/icons/metro-uinvert-dock/128/OS_Ubuntu_alt.png" parent="1" vertex="1">
          <mxGeometry x="1271" y="518" width="58" height="58" as="geometry" />
        </mxCell>
        <mxCell id="5tZSmuqax2kPrNc6n6yo-2" value="" style="endArrow=none;dashed=1;html=1;dashPattern=1 3;strokeWidth=2;exitX=1;exitY=0.5;exitDx=0;exitDy=0;" edge="1" parent="1" source="5tZSmuqax2kPrNc6n6yo-10" target="umeH0HnyxNXrOA5HGb2K-6">
          <mxGeometry width="50" height="50" relative="1" as="geometry">
            <mxPoint x="583.4500000000002" y="471.5" as="sourcePoint" />
            <mxPoint x="820" y="322.5877710155953" as="targetPoint" />
          </mxGeometry>
        </mxCell>
        <mxCell id="5tZSmuqax2kPrNc6n6yo-4" value="Caddy as File Server" style="text;html=1;strokeColor=none;fillColor=none;align=center;verticalAlign=middle;whiteSpace=wrap;rounded=0;fontSize=14;" vertex="1" parent="1">
          <mxGeometry x="780.3999999999999" y="230" width="177" height="20" as="geometry" />
        </mxCell>
        <mxCell id="5tZSmuqax2kPrNc6n6yo-5" value="Caddy as Reverse Proxy" style="text;html=1;strokeColor=none;fillColor=none;align=center;verticalAlign=middle;whiteSpace=wrap;rounded=0;fontSize=14;" vertex="1" parent="1">
          <mxGeometry x="780.4" y="475.5" width="177" height="20" as="geometry" />
        </mxCell>
        <mxCell id="5tZSmuqax2kPrNc6n6yo-8" value="" style="outlineConnect=0;fontColor=#232F3E;gradientColor=none;fillColor=#277116;strokeColor=none;dashed=0;verticalLabelPosition=bottom;verticalAlign=top;align=center;html=1;fontSize=12;fontStyle=0;aspect=fixed;pointerEvents=1;shape=mxgraph.aws4.file_system;" vertex="1" parent="1">
          <mxGeometry x="829.9" y="350" width="78" height="73" as="geometry" />
        </mxCell>
        <mxCell id="5tZSmuqax2kPrNc6n6yo-9" value="" style="endArrow=none;dashed=1;html=1;dashPattern=1 3;strokeWidth=2;exitX=1;exitY=0.75;exitDx=0;exitDy=0;" edge="1" parent="1" source="5tZSmuqax2kPrNc6n6yo-11" target="5tZSmuqax2kPrNc6n6yo-8">
          <mxGeometry width="50" height="50" relative="1" as="geometry">
            <mxPoint x="593.4500000000003" y="481.5" as="sourcePoint" />
            <mxPoint x="870.1313829787232" y="327.17921595862686" as="targetPoint" />
          </mxGeometry>
        </mxCell>
        <mxCell id="5tZSmuqax2kPrNc6n6yo-11" value="Site-2.com" style="rounded=0;whiteSpace=wrap;html=1;fontSize=14;" vertex="1" parent="1">
          <mxGeometry x="350" y="636.5" width="180" height="18" as="geometry" />
        </mxCell>
        <mxCell id="5tZSmuqax2kPrNc6n6yo-12" value="php-site.com" style="rounded=0;whiteSpace=wrap;html=1;fontSize=14;" vertex="1" parent="1">
          <mxGeometry x="350" y="671" width="180" height="18" as="geometry" />
        </mxCell>
        <mxCell id="5tZSmuqax2kPrNc6n6yo-10" value="Site-1.com" style="rounded=0;whiteSpace=wrap;html=1;fontSize=14;" vertex="1" parent="1">
          <mxGeometry x="350" y="600" width="180" height="18" as="geometry" />
        </mxCell>
        <mxCell id="5tZSmuqax2kPrNc6n6yo-16" style="edgeStyle=orthogonalEdgeStyle;rounded=0;orthogonalLoop=1;jettySize=auto;html=1;exitX=0.5;exitY=1;exitDx=0;exitDy=0;fontSize=14;" edge="1" parent="1" source="5tZSmuqax2kPrNc6n6yo-13" target="5tZSmuqax2kPrNc6n6yo-13">
          <mxGeometry relative="1" as="geometry" />
        </mxCell>
        <mxCell id="5tZSmuqax2kPrNc6n6yo-13" value="node-site.com" style="rounded=0;whiteSpace=wrap;html=1;fontSize=14;" vertex="1" parent="1">
          <mxGeometry x="350" y="703.7" width="180" height="18" as="geometry" />
        </mxCell>
        <mxCell id="5tZSmuqax2kPrNc6n6yo-14" value="wordpress-site.com" style="rounded=0;whiteSpace=wrap;html=1;fontSize=14;" vertex="1" parent="1">
          <mxGeometry x="350" y="738" width="180" height="18" as="geometry" />
        </mxCell>
      </root>
    </mxGraphModel>
  </diagram>
</mxfile>
